# Blender v2.83.18 OBJ File: ''
# www.blender.org
mtllib man4.mtl
o Cube.003
v -1.724329 6.755542 -4.249593
v 1.724329 6.755540 -0.744508
v 1.724329 6.755542 -4.249593
v 1.724329 4.023032 -0.744509
v 1.724329 4.023035 -4.249594
v -1.724329 4.023032 -0.744509
v -1.724329 4.023035 -4.249594
v -1.724329 6.755540 -0.744508
v -0.547076 4.079669 -0.937497
v 1.076866 4.079672 -4.042754
v -0.547076 4.079672 -4.042754
v 1.076866 0.137584 -0.937500
v 1.076866 0.137585 -4.042757
v 1.076866 4.079669 -0.937497
v -0.547076 0.137584 -0.937500
v -0.547076 0.137585 -4.042757
v -0.390340 3.969347 0.690903
v 3.832300 3.969347 -0.945681
v -0.390340 3.969347 -0.945681
v 3.832300 2.332762 0.690902
v 3.832300 2.332763 -0.945683
v 3.832300 3.969347 0.690903
v -0.390340 2.332762 0.690902
v -0.390340 2.332763 -0.945683
v 1.103257 4.140158 -4.105299
v 1.103257 -0.082482 -5.741885
v 1.103257 4.140158 -5.741883
v -0.533327 -0.082483 -4.105302
v -0.533327 -0.082482 -5.741885
v 1.103257 -0.082483 -4.105302
v -0.533327 4.140158 -4.105299
v -0.533327 4.140158 -5.741883
v 6.321489 5.578331 0.359445
v 2.621948 4.696764 0.359445
v 6.321489 4.696764 0.359445
v 2.621948 5.578331 0.359445
v 2.621947 4.696764 -0.522121
v 2.621947 5.578331 -0.522121
v 6.321489 4.696764 -0.522121
v 6.321489 5.578331 -0.522121
v 4.234061 2.505985 0.335097
v 3.352495 4.721805 0.335098
v 3.352495 2.505985 0.335097
v 4.234061 4.721805 0.335098
v 3.352495 4.721805 -0.546468
v 4.234061 4.721805 -0.546468
v 3.352495 2.505986 -0.546469
v 4.234061 2.505986 -0.546469
vt 0.659459 0.429535
vt 0.430576 0.204336
vt 0.659459 0.204336
vt 0.382770 0.434261
vt 0.204336 0.663144
vt 0.204336 0.434261
vt 0.000521 0.687995
vt 0.178954 0.462797
vt 0.178954 0.687995
vt 0.204336 0.204336
vt 0.429535 0.433219
vt 0.204336 0.433219
vt 0.484180 0.178954
vt 0.258981 0.000521
vt 0.484180 0.000521
vt 0.609010 0.430576
vt 0.430576 0.659459
vt 0.430576 0.430576
vt 0.000521 0.902166
vt 0.203295 0.796122
vt 0.203295 0.902166
vt 0.000521 0.204336
vt 0.203295 0.461756
vt 0.000521 0.461756
vt 0.996997 0.880007
vt 0.739578 0.986051
vt 0.739578 0.880007
vt 0.000521 0.795081
vt 0.203295 0.689037
vt 0.203295 0.795081
vt 0.738536 0.880007
vt 0.481117 0.986051
vt 0.481117 0.880007
vt 0.000521 0.203295
vt 0.257940 0.000521
vt 0.257940 0.203295
vt 0.204336 0.772096
vt 0.480076 0.878965
vt 0.204336 0.878965
vt 0.868872 0.000521
vt 0.762002 0.107390
vt 0.762002 0.000521
vt 0.480076 0.986876
vt 0.204336 0.880007
vt 0.480076 0.880007
vt 0.485221 0.107390
vt 0.760961 0.000521
vt 0.760961 0.107390
vt 0.204336 0.664185
vt 0.480076 0.771055
vt 0.204336 0.771055
vt 0.932742 0.430576
vt 0.825873 0.537445
vt 0.825873 0.430576
vt 0.824831 0.430576
vt 0.717962 0.706316
vt 0.717962 0.430576
vt 0.827019 0.153795
vt 0.933889 0.260664
vt 0.827019 0.260664
vt 0.610051 0.706316
vt 0.716920 0.430576
vt 0.716920 0.706316
vt 0.756857 0.878965
vt 0.481117 0.772096
vt 0.756857 0.772096
vt 0.660501 0.153795
vt 0.767370 0.429535
vt 0.660501 0.429535
vt 0.825873 0.645356
vt 0.932742 0.538487
vt 0.932742 0.645356
vt 0.825978 0.153795
vt 0.768412 0.395376
vt 0.768411 0.153795
vt 0.883439 0.703964
vt 0.825873 0.646398
vt 0.883439 0.646398
vt 0.999479 0.829663
vt 0.757898 0.772096
vt 0.999479 0.772096
vt 0.884481 0.703964
vt 0.942047 0.646398
vt 0.942047 0.703964
vt 0.722698 0.713488
vt 0.481117 0.771055
vt 0.481117 0.713488
vt 0.965321 0.771055
vt 0.723740 0.713488
vt 0.965321 0.713488
vt 0.885628 0.406400
vt 0.943194 0.261706
vt 0.943194 0.406399
vt 0.058087 0.903208
vt 0.000521 0.960774
vt 0.000521 0.903208
vt 0.629915 0.165998
vt 0.485221 0.108432
vt 0.629915 0.108432
vt 0.059129 0.903208
vt 0.116695 0.960774
vt 0.059129 0.960774
vt 0.884586 0.261706
vt 0.827019 0.406399
vt 0.827019 0.261706
vt 0.927480 0.000521
vt 0.869913 0.145214
vt 0.869913 0.000521
vt 0.430576 0.429535
vt 0.382770 0.663144
vt 0.000521 0.462797
vt 0.429535 0.204336
vt 0.258981 0.178954
vt 0.609010 0.659459
vt 0.000521 0.796122
vt 0.203295 0.204336
vt 0.996997 0.986051
vt 0.000521 0.689037
vt 0.738536 0.986051
vt 0.000521 0.000521
vt 0.480076 0.772096
vt 0.868872 0.107390
vt 0.204336 0.986876
vt 0.485221 0.000521
vt 0.480076 0.664185
vt 0.932742 0.537445
vt 0.824831 0.706316
vt 0.933889 0.153795
vt 0.610051 0.430576
vt 0.481117 0.878965
vt 0.767370 0.153795
vt 0.825873 0.538487
vt 0.825978 0.395376
vt 0.825873 0.703964
vt 0.757898 0.829663
vt 0.884481 0.646398
vt 0.722698 0.771055
vt 0.723740 0.771055
vt 0.885628 0.261706
vt 0.058087 0.960774
vt 0.485221 0.165998
vt 0.116695 0.903208
vt 0.884586 0.406399
vt 0.927480 0.145214
vn 0.0000 1.0000 0.0000
vn 1.0000 0.0000 0.0000
vn 0.0000 -0.0000 1.0000
vn 0.0000 -1.0000 -0.0000
vn 0.0000 0.0000 -1.0000
vn -1.0000 -0.0000 0.0000
usemtl Material.004
s 1
f 1/1/1 2/2/1 3/3/1
f 3/4/2 4/5/2 5/6/2
f 2/7/3 6/8/3 4/9/3
f 7/10/4 4/11/4 6/12/4
f 1/13/5 5/14/5 7/15/5
f 8/16/6 7/17/6 6/18/6
f 9/19/1 10/20/1 11/21/1
f 10/22/2 12/23/2 13/24/2
f 14/25/3 15/26/3 12/27/3
f 16/28/4 12/29/4 15/30/4
f 11/31/5 13/32/5 16/33/5
f 9/34/6 16/35/6 15/36/6
f 17/37/1 18/38/1 19/39/1
f 18/40/2 20/41/2 21/42/2
f 22/43/3 23/44/3 20/45/3
f 23/46/4 21/47/4 20/48/4
f 19/49/5 21/50/5 24/51/5
f 17/52/6 24/53/6 23/54/6
f 25/55/2 26/56/2 27/57/2
f 26/58/4 28/59/4 29/60/4
f 30/61/3 31/62/3 28/63/3
f 32/64/6 28/65/6 31/66/6
f 32/67/5 26/68/5 29/69/5
f 25/70/1 32/71/1 31/72/1
f 33/73/3 34/74/3 35/75/3
f 36/76/6 37/77/6 34/78/6
f 38/79/5 39/80/5 37/81/5
f 40/82/2 35/83/2 39/84/2
f 34/85/4 39/86/4 35/87/4
f 36/88/1 40/89/1 38/90/1
f 41/91/3 42/92/3 43/93/3
f 44/94/1 45/95/1 42/96/1
f 46/97/5 47/98/5 45/99/5
f 48/100/4 43/101/4 47/102/4
f 45/103/6 43/104/6 42/105/6
f 44/106/2 48/107/2 46/108/2
f 1/1/1 8/109/1 2/2/1
f 3/4/2 2/110/2 4/5/2
f 2/7/3 8/111/3 6/8/3
f 7/10/4 5/112/4 4/11/4
f 1/13/5 3/113/5 5/14/5
f 8/16/6 1/114/6 7/17/6
f 9/19/1 14/115/1 10/20/1
f 10/22/2 14/116/2 12/23/2
f 14/25/3 9/117/3 15/26/3
f 16/28/4 13/118/4 12/29/4
f 11/31/5 10/119/5 13/32/5
f 9/34/6 11/120/6 16/35/6
f 17/37/1 22/121/1 18/38/1
f 18/40/2 22/122/2 20/41/2
f 22/43/3 17/123/3 23/44/3
f 23/46/4 24/124/4 21/47/4
f 19/49/5 18/125/5 21/50/5
f 17/52/6 19/126/6 24/53/6
f 25/55/2 30/127/2 26/56/2
f 26/58/4 30/128/4 28/59/4
f 30/61/3 25/129/3 31/62/3
f 32/64/6 29/130/6 28/65/6
f 32/67/5 27/131/5 26/68/5
f 25/70/1 27/132/1 32/71/1
f 33/73/3 36/133/3 34/74/3
f 36/76/6 38/134/6 37/77/6
f 38/79/5 40/135/5 39/80/5
f 40/82/2 33/136/2 35/83/2
f 34/85/4 37/137/4 39/86/4
f 36/88/1 33/138/1 40/89/1
f 41/91/3 44/139/3 42/92/3
f 44/94/1 46/140/1 45/95/1
f 46/97/5 48/141/5 47/98/5
f 48/100/4 41/142/4 43/101/4
f 45/103/6 47/143/6 43/104/6
f 44/106/2 41/144/2 48/107/2
